# xmcd
#
# Track frame offsets:
#	150
#	11227
#	32427
#	41995
#	52090
#	61430
#	70830
#	84237
#	92937
#	107212
#	117517
#	131367
#	146642
#	156217
#	170430
#
# Disc length: 2404 seconds
#
# Revision: 1
# Processed by: cddbd v1.5.1PL2 Copyright (c) Steve Scherf et al.
# Submitted via: audiograbber 1.83.01
#
DISCID=d509620f
DTITLE=The Everly Brothers  - The Everly Brothers - Love Songs
DYEAR=1900
DGENRE=Schlager
TTITLE0=Take A Message to Mary
TTITLE1=Barbara Allen
TTITLE2=Maybe Tomorrow
TTITLE3=Claudette
TTITLE4=Should We Tell Him
TTITLE5=Oh What A Feeling
TTITLE6=Rockin' Alone
TTITLE7=Since You Broke My Heart
TTITLE8=That Silverhaired Daddy of Mine
TTITLE9=A Brand New Heartache
TTITLE10=Down In Willow Garden
TTITLE11=Put My Little Shoes Away
TTITLE12=Love Of My Life
TTITLE13=Kentucky
TTITLE14=I Wonder If I Cares As Much
EXTD=
EXTT0=
EXTT1=
EXTT2=
EXTT3=
EXTT4=
EXTT5=
EXTT6=
EXTT7=
EXTT8=
EXTT9=
EXTT10=
EXTT11=
EXTT12=
EXTT13=
EXTT14=
PLAYORDER=
